<?xml version="1.0" standalone="no"?>
<!DOCTYPE svg PUBLIC "-//W3C//DTD SVG 20010904//EN"
 "http://www.w3.org/TR/2001/REC-SVG-20010904/DTD/svg10.dtd">
<svg version="1.0" xmlns="http://www.w3.org/2000/svg"
 width="700.000000pt" height="700.000000pt" viewBox="0 0 700.000000 700.000000"
 preserveAspectRatio="xMidYMid meet">
<metadata>
Created by potrace 1.14, written by Peter Selinger 2001-2017
</metadata>
<g transform="translate(0.000000,700.000000) scale(0.100000,-0.100000)"
fill="#000000" stroke="none">
<path d="M3315 6553 c-680 -55 -1279 -298 -1840 -748 -123 -99 -328 -301 -419
-415 -359 -449 -556 -973 -606 -1614 -13 -167 -13 -520 0 -683 55 -668 290
-1201 753 -1701 264 -286 556 -511 857 -659 241 -119 469 -193 735 -238 250
-42 383 -50 835 -50 447 0 535 6 815 56 831 149 1537 618 1842 1224 130 258
203 560 203 841 l0 103 -52 5 c-29 3 -269 17 -533 31 -264 14 -597 32 -740 40
-143 8 -287 15 -319 16 l-59 3 -27 -110 c-15 -60 -39 -138 -53 -174 -168 -443
-524 -674 -991 -646 -503 30 -894 293 -1127 757 -132 264 -199 574 -199 922 0
544 140 943 429 1227 114 112 205 174 349 236 318 137 760 139 1058 4 264
-119 481 -400 543 -702 l12 -56 72 -6 c40 -3 440 -8 890 -11 776 -5 817 -4
817 12 0 75 -68 358 -125 523 -408 1176 -1434 1829 -2860 1818 -121 -1 -238
-3 -260 -5z"/>
</g>
</svg>
